<?xml version="1.0" encoding="utf-8"?>
<!-- Generator: Adobe Illustrator 19.1.0, SVG Export Plug-In . SVG Version: 6.00 Build 0)  -->
<svg version="1.1" id="Layer_1" xmlns="http://www.w3.org/2000/svg" xmlns:xlink="http://www.w3.org/1999/xlink" x="0px" y="0px"
	 width="532.6px" height="102.9px" viewBox="0 0 532.6 102.9" style="enable-background:new 0 0 532.6 102.9;" xml:space="preserve"
	>
<style type="text/css">
	.st0{fill:#ffffff;}
	.st1{fill:#ffffff;}
	.st2{fill:#ffffff;}
</style>
<g>
	<g>
		<g>
			<path class="st1" d="M79.1,75.2l-1.9,0.1l-0.1-0.7l1-0.2v-5.7c0-1-0.5-1.5-1.3-1.5c-0.6,0-1.4,0.4-2.1,0.9l-0.6,0.4v5.9l1.1,0.2
				l-0.1,0.7l-1.9-0.1l-2.1,0.1L71,74.5l1.2-0.2V62.1l-0.7,0.1l-4.1-0.1v12.1l2.3,0.3l-0.1,0.7l-3.2-0.1L63,75.2l-0.1-0.7l2.4-0.3
				V62.1l-3,0.1l-0.9,2.5h-0.8v-3.5l5.7,0l4.9,0l2.1-0.2h0.7v6.5l2.9-1.9c2.6,0,3,1,3,3.5v5.3l1.5,0.2l-0.1,0.7L79.1,75.2z"/>
			<path class="st1" d="M84.3,70.1c0,2.3,1.2,3.9,3.3,3.9c0.8,0,1.8-0.4,2.5-0.8l0.3,0.8c-1,0.7-2.2,1.2-3.5,1.6
				c-2.4,0-4.6-1.7-4.6-4.9c0-3,1.8-4.5,4.5-5.1c2.6,0,3.5,1.7,3.5,3.8v0.8H84.3z M88.3,69.1c0-1.5-0.3-2.6-1.8-2.6
				c-1.2,0-2,1.1-2.2,2.8L88.3,69.1z"/>
			<path class="st1" d="M104.2,61.9l0.1-0.7l2.6,0.1l2.3-0.1l0.1,0.7l-1.7,0.3v8.2c0,2.6-1.1,4.3-5,5.3c-3.9,0-5.3-2.1-5.3-5.3v-8.1
				l-1.8-0.3l0.1-0.7l2.8,0.1l2.7-0.1l0.1,0.7l-1.7,0.3v8.4c0,2.5,1.1,3.9,3.3,3.9c2.1,0,3.2-1.4,3.2-4v-8.4L104.2,61.9z"/>
			<path class="st1" d="M112,75.2l-2.3,0.1l-0.1-0.7l1.4-0.2V67l-1.4,0.1l-0.1-0.7l2.4-0.6l0.9-0.1l0.1,1.7l3-1.9c2.6,0,3,0.9,3,3.3
				v5.6l1.5,0.2l-0.1,0.7l-2.3-0.1l-1.9,0.1l-0.1-0.7l1-0.2v-5.7c0-1-0.5-1.5-1.3-1.5c-0.7,0-1.4,0.4-2.1,0.9l-0.6,0.4v5.9l1.1,0.2
				l-0.1,0.7L112,75.2z"/>
			<path class="st1" d="M123.5,75.2l-2.3,0.1l-0.1-0.7l1.4-0.2V67l-1.4,0.1l-0.1-0.7l2.4-0.6l1-0.1v8.6l1.5,0.2l-0.1,0.7L123.5,75.2
				z M122.5,61.4l1.4-0.1l0.6,0.1l0.1,1.1l-0.2,1l-1.4,0.1l-0.5-0.1l-0.1-1.1L122.5,61.4z"/>
			<path class="st1" d="M131.5,73.9l2.4-7.2l-0.9-0.2l0.1-0.7l1.8,0.1l1.7-0.1l0.1,0.7l-1.3,0.2l-3.3,8.2l-1.5,0.6l-3.5-8.8
				l-1.2-0.2l0.1-0.7l2.3,0.1l2.1-0.1l0.1,0.7l-1.3,0.2l2.2,5.9L131.5,73.9z"/>
			<path class="st1" d="M138.6,70.1c0,2.3,1.2,3.9,3.3,3.9c0.8,0,1.8-0.4,2.5-0.8l0.3,0.8c-1,0.7-2.2,1.2-3.5,1.6
				c-2.4,0-4.6-1.7-4.6-4.9c0-3,1.8-4.5,4.5-5.1c2.6,0,3.5,1.7,3.5,3.8v0.8H138.6z M142.6,69.1c0-1.5-0.3-2.6-1.8-2.6
				c-1.2,0-2,1.1-2.2,2.8L142.6,69.1z"/>
			<path class="st1" d="M149.2,68.4l2.3-2.8h1.6v2h-1.5c-0.5,0.1-1.4,0.8-1.9,1.4l-0.4,0.5v4.8l2.1,0.2l-0.1,0.8l-2.9-0.1l-2.2,0.1
				l-0.1-0.7l1.4-0.2V67l-1.4,0.1l-0.1-0.7l2.4-0.6l0.8-0.1L149.2,68.4z"/>
			<path class="st1" d="M159.4,66.9c-0.2-0.1-0.8-0.4-1.5-0.4c-0.8,0-1.5,0.4-1.5,1.2c0,0.6,0.5,1,1.4,1.5l1.5,0.8
				c1.3,0.7,1.9,1.4,1.9,2.6c0,1.8-1.5,2.5-3.8,3c-1.2,0-2.5-0.6-3-0.9l-0.4-2.3h1.3l0.7,1.7c0.4,0.3,1,0.5,1.6,0.5
				c1.1,0,1.6-0.7,1.6-1.5c0-0.8-0.4-1.1-1.5-1.7l-1.6-0.8c-0.9-0.4-1.7-1.2-1.7-2.3c0-1.4,1.3-2.2,3.6-2.7c1.1,0,2.2,0.5,2.8,0.9v2
				h-1.1L159.4,66.9z"/>
			<path class="st1" d="M164.9,75.2l-2.3,0.1l-0.1-0.7l1.4-0.2V67l-1.4,0.1l-0.1-0.7l2.4-0.6l1-0.1v8.6l1.5,0.2l-0.1,0.7L164.9,75.2
				z M163.9,61.4l1.4-0.1l0.6,0.1l0.1,1.1l-0.2,1l-1.4,0.1l-0.5-0.1l-0.1-1.1L163.9,61.4z"/>
			<path class="st1" d="M174.8,79.9v-2h1.7l2-3l-0.8,0.2l-3.4-8.4h-3v6.1c0,0.6,0.2,1.2,1.1,1.2c0.6,0,1.2-0.3,1.8-0.6l0.3,0.7
				l-2.5,1.4c-2.2,0-2.5-0.8-2.5-2.6v-6h-1.9v-0.3l0.7-0.7h1.3v-1.3l1.3-1.3h0.5v2.5h6.3l0.1,0.7l-1.3,0.2l2.2,5.9l0.2,1.4l2.5-7.2
				l-0.9-0.2l0.1-0.7l1.8,0.1l1.7-0.1l0.1,0.7l-1.3,0.2l-3.2,8.2l-2.2,5H174.8z"/>
			<path class="st1" d="M197.1,70.3c0,3-1.8,4.7-4.9,5.2c-2.7,0-4.5-2.1-4.5-4.8c0-3,1.8-4.7,4.9-5.2
				C195.3,65.5,197.1,67.6,197.1,70.3z M192.7,74.5c1.6,0,2.4-1.6,2.4-3.8c0-2.5-1.2-4.2-3-4.2c-1.6,0-2.4,1.6-2.4,3.8
				C189.7,72.6,190.9,74.5,192.7,74.5z"/>
			<path class="st1" d="M201.6,66h2.5v0.9h-2.5v7.4l2.3,0.1l-0.1,0.8l-3.1-0.1l-2.3,0.1l-0.1-0.7l1.4-0.2v-7.4H198v-0.3l0.6-0.7h1.2
				v-0.2c0-1.2,0.4-2,1.1-2.8l1.7-1.9h2.5v1.6h-2.6l-0.4,0.5c-0.3,0.4-0.4,1-0.4,2.3V66z"/>
			<path class="st1" d="M219.4,75.2l-3.2-0.1l-3.4,0.1l-0.1-0.7l2.4-0.3V62.1l-3,0l-0.9,2.5h-0.8v-3.5l5.7,0.1l5.8-0.1v3.5h-0.8
				l-0.9-2.5l-3,0v12.1l2.3,0.3L219.4,75.2z"/>
			<path class="st1" d="M223,70.1c0,2.3,1.2,3.9,3.3,3.9c0.8,0,1.8-0.4,2.5-0.8l0.3,0.8c-1,0.7-2.2,1.2-3.5,1.6
				c-2.4,0-4.6-1.7-4.6-4.9c0-3,1.8-4.5,4.5-5.1c2.6,0,3.5,1.7,3.5,3.8v0.8H223z M227,69.1c0-1.5-0.3-2.6-1.8-2.6
				c-1.2,0-2,1.1-2.2,2.8L227,69.1z"/>
			<path class="st1" d="M233.6,74.5l-0.1,0.7l-1.6-0.1l-2.1,0.1l-0.1-0.7l1.4-0.2l3-3.6l-2.9-4l-1.2-0.2l0.1-0.7l2.3,0.1l1.9-0.1
				l0.1,0.7l-0.8,0.2l1.5,2.2l0.2,0.5l1.9-2.7l-1-0.2l0.1-0.7l1.6,0.1l2.1-0.1l0.1,0.7l-1.4,0.2l-2.6,3.2l3.1,4.4l1.2,0.2l-0.1,0.7
				l-2.3-0.1l-1.9,0.1l-0.1-0.7l0.8-0.2l-1.8-2.6l-0.2-0.5l-2.1,3L233.6,74.5z"/>
			<path class="st1" d="M245,65.5c2.5,0,3.2,0.6,3.2,3.2v3.9c0,0.9,0.1,1.2,0.3,1.5h1l0.1,0.7l-2.6,0.5l-0.6-1.5l-2.4,1.7
				c-1.7,0-2.9-1-2.9-2.6c0-0.7,0.3-1.2,0.7-1.8l4.5-1.5v-1c0-1.2-0.1-1.9-1.2-1.9c-0.5,0-1.2,0.2-1.6,0.4l-0.3,1.6h-1.7v-1.5
				L245,65.5z M246.2,70.4l-2.9,1.2c-0.3,0.3-0.4,0.7-0.4,1.1c0,1,0.6,1.4,1.2,1.4c0.6,0,1-0.3,1.3-0.5l0.8-0.6V70.4z"/>
			<path class="st1" d="M255.8,66.9c-0.2-0.1-0.8-0.4-1.5-0.4c-0.8,0-1.5,0.4-1.5,1.2c0,0.6,0.5,1,1.4,1.5l1.5,0.8
				c1.3,0.7,1.9,1.4,1.9,2.6c0,1.8-1.5,2.5-3.8,3c-1.2,0-2.5-0.6-3-0.9l-0.4-2.3h1.3l0.7,1.7c0.4,0.3,1,0.5,1.6,0.5
				c1.1,0,1.6-0.7,1.6-1.5c0-0.8-0.4-1.1-1.5-1.7l-1.6-0.8c-0.9-0.4-1.7-1.2-1.7-2.3c0-1.4,1.3-2.2,3.6-2.7c1.1,0,2.2,0.5,2.8,0.9v2
				h-1.1L255.8,66.9z"/>
			<path class="st1" d="M267.6,65.5c2.5,0,3.2,0.6,3.2,3.2v3.9c0,0.9,0.1,1.2,0.3,1.5h1l0.1,0.7l-2.6,0.5l-0.6-1.5l-2.4,1.7
				c-1.7,0-2.9-1-2.9-2.6c0-0.7,0.3-1.2,0.7-1.8l4.5-1.5v-1c0-1.2-0.1-1.9-1.2-1.9c-0.5,0-1.2,0.2-1.6,0.4l-0.3,1.6H264v-1.5
				L267.6,65.5z M268.9,70.4l-2.9,1.2c-0.3,0.3-0.4,0.7-0.4,1.1c0,1,0.6,1.4,1.2,1.4c0.6,0,1-0.3,1.3-0.5l0.8-0.6V70.4z"/>
			<path class="st1" d="M272.1,66.9v-0.3l0.7-0.7h1.3v-1.3l1.3-1.3h0.5V66h3v0.9h-3v5.9c0,0.6,0.2,1.2,1.1,1.2c0.6,0,1-0.2,1.6-0.5
				l0.3,0.7l-2.3,1.3c-2.2,0-2.5-0.8-2.5-2.6v-6H272.1z"/>
			<path class="st1" d="M287.4,70.5l-1.3,3.7l1.7,0.3l-0.1,0.7l-2.4-0.1l-2.1,0.1l-0.1-0.7l1.6-0.2l5-13l1.2-0.3l5.2,13.3l1.6,0.2
				l-0.1,0.7l-2.8-0.1l-2.6,0.1l-0.1-0.7l1.7-0.3l-1.4-3.7H287.4z M290,64.3l-0.1-1.1l-2.2,6.4h4.3L290,64.3z"/>
			<path class="st1" d="M306.1,72.6c0,0.9,0.1,1.2,0.2,1.5h1l0.1,0.7l-2.6,0.5l-0.6-1.6l-2.9,1.8c-2.6,0-3.1-0.9-3.1-3.3V67
				l-1.4,0.1l-0.1-0.8l2.4-0.5l1-0.1v6.7c0,1,0.4,1.5,1.4,1.5c0.6,0,1.4-0.5,2.2-1l0.4-0.3V67l-1.2,0.1l-0.1-0.8l2.2-0.5l1-0.1V72.6
				z"/>
			<path class="st1" d="M313.7,66.9c-0.2-0.1-0.8-0.4-1.5-0.4c-0.8,0-1.5,0.4-1.5,1.2c0,0.6,0.5,1,1.4,1.5l1.5,0.8
				c1.3,0.7,1.9,1.4,1.9,2.6c0,1.8-1.5,2.5-3.8,3c-1.2,0-2.5-0.6-3-0.9l-0.4-2.3h1.3l0.7,1.7c0.4,0.3,1,0.5,1.6,0.5
				c1.1,0,1.6-0.7,1.6-1.5c0-0.8-0.4-1.1-1.5-1.7l-1.6-0.8c-0.9-0.4-1.7-1.2-1.7-2.3c0-1.4,1.3-2.2,3.6-2.7c1.1,0,2.2,0.5,2.8,0.9v2
				h-1.1L313.7,66.9z"/>
			<path class="st1" d="M316.1,66.9v-0.3l0.7-0.7h1.3v-1.3l1.3-1.3h0.5V66h3v0.9h-3v5.9c0,0.6,0.2,1.2,1.1,1.2c0.6,0,1-0.2,1.6-0.5
				l0.3,0.7l-2.3,1.3c-2.2,0-2.5-0.8-2.5-2.6v-6H316.1z"/>
			<path class="st1" d="M326.5,75.2l-2.3,0.1l-0.1-0.7l1.4-0.2V67l-1.4,0.1l-0.1-0.7l2.4-0.6l1-0.1v8.6l1.5,0.2l-0.1,0.7L326.5,75.2
				z M325.5,61.4l1.4-0.1l0.6,0.1l0.1,1.1l-0.2,1l-1.4,0.1l-0.5-0.1l-0.1-1.1L325.5,61.4z"/>
			<path class="st1" d="M332.2,75.2l-2.3,0.1l-0.1-0.7l1.4-0.2V67l-1.4,0.1l-0.1-0.7l2.4-0.6l0.9-0.1l0.1,1.7l3-1.9
				c2.6,0,3,0.9,3,3.3v5.6l1.5,0.2l-0.1,0.7l-2.3-0.1l-1.9,0.1l-0.1-0.7l1-0.2v-5.7c0-1-0.5-1.5-1.3-1.5c-0.7,0-1.4,0.4-2.1,0.9
				l-0.6,0.4v5.9l1.1,0.2l-0.1,0.7L332.2,75.2z"/>
			<path class="st2" d="M63.8,98.2L61,98.2l-0.1-0.7l1.8-0.3V85.1l-1.8-0.3l0.1-0.7l2.8,0.1l2.7-0.1l0.1,0.7l-1.8,0.3v12.1l5-0.1
				l1.3-2.7h0.8l-0.7,3.7L63.8,98.2z"/>
			<path class="st2" d="M72.6,102.9v-2h1.7l2-3l-0.8,0.2l-3.3-8.4L71,89.5l0.1-0.7l2.3,0.1l2.1-0.1l0.1,0.7l-1.3,0.2l2.1,5.9
				l0.2,1.4l2.4-7.2l-0.9-0.2l0.1-0.7l1.8,0.1l1.7-0.1l0.1,0.7l-1.3,0.2l-3.1,8.2l-2.2,5H72.6z"/>
			<path class="st2" d="M84.4,98.2l-2.3,0.1L82,97.5l1.4-0.2V90L82,90.1l-0.1-0.7l2.4-0.6l0.9-0.1l0.1,1.7l3-1.9c2.6,0,3,0.9,3,3.3
				v5.6l1.5,0.2l-0.1,0.7l-2.3-0.1l-1.9,0.1l-0.1-0.7l1-0.2v-5.7c0-1-0.5-1.5-1.3-1.5c-0.7,0-1.4,0.4-2.1,0.9l-0.6,0.4v5.9l1.1,0.2
				l-0.1,0.7L84.4,98.2z"/>
			<path class="st2" d="M101.8,95.6c0,0.8,0.1,1.2,0.3,1.5h1.1l0.1,0.7l-2.7,0.5l-0.6-1.5l-2.6,1.7c-2.5,0-4.2-1.9-4.2-4.7
				c0-3.2,2-4.9,4.9-5.3c0.4,0,1.2,0.3,1.7,0.5v-3.8l-1.4,0l-0.1-0.7l2.4-0.6l1-0.1V95.6z M99.3,96.1l0.6-0.5v-5.3
				c-0.4-0.5-1.1-0.8-2-0.8c-1.6,0-2.6,1.5-2.6,3.8c0,2.2,0.9,3.6,2.1,3.6C98,96.9,98.6,96.6,99.3,96.1z"/>
			<path class="st2" d="M113.5,93.3c0,3-1.8,4.7-4.9,5.2c-2.7,0-4.5-2.1-4.5-4.8c0-3,1.8-4.7,4.9-5.2
				C111.7,88.5,113.5,90.6,113.5,93.3z M109,97.5c1.6,0,2.4-1.6,2.4-3.8c0-2.5-1.2-4.2-3-4.2c-1.6,0-2.4,1.6-2.4,3.8
				C106.1,95.6,107.3,97.5,109,97.5z"/>
			<path class="st2" d="M117,98.2l-2.3,0.1l-0.1-0.7l1.4-0.2V90l-1.4,0.1l-0.1-0.7l2.4-0.6l0.9-0.1l0.1,1.7l3-1.9c2.6,0,3,0.9,3,3.3
				v5.6l1.5,0.2l-0.1,0.7l-2.3-0.1l-1.9,0.1l-0.1-0.7l1-0.2v-5.7c0-1-0.5-1.5-1.3-1.5c-0.7,0-1.4,0.4-2.1,0.9l-0.6,0.4v5.9l1.1,0.2
				l-0.1,0.7L117,98.2z"/>
			<path class="st2" d="M134.3,98.2l-2.8,0.1l-0.1-0.7l1.8-0.3V85.1l-1.8-0.3l0.1-0.7l2.8,0.1l3.9-0.1c2.6,0,3.9,1.5,3.9,3
				c0,1.6-1.3,3-3.2,3.5c2.6,0.1,4,1.6,4,3.4c0,2.7-2.2,3.7-5.4,4.1L134.3,98.2z M135.3,85.1v5.3h1.7c1.8,0,2.9-1.4,2.9-3
				c0-1.4-0.9-2.3-2.5-2.4L135.3,85.1z M137.1,97.4c2.7,0,3.6-1.7,3.6-3.2c0-1.7-1.2-2.9-3.2-2.9h-2.2v6L137.1,97.4z"/>
			<path class="st2" d="M143.5,96.2l1.4-0.1l0.6,0.1l0.1,1.1l-0.1,0.9l-1.4,0.1l-0.6-0.1l-0.1-1.1L143.5,96.2z"/>
			<path class="st2" d="M154.7,96.2c0,1.7-0.2,2.5-0.9,3.3l-2,2.2H150v-1.8h2.1l0.2-0.4c0.3-0.7,0.3-1.4,0.3-3.2V85.1l-2.2-0.3
				l0.1-0.7l3.2,0.1l2.6-0.1l0.1,0.7l-1.7,0.3V96.2z"/>
			<path class="st2" d="M166.1,93.3c0,3-1.8,4.7-4.9,5.2c-2.7,0-4.5-2.1-4.5-4.8c0-3,1.8-4.7,4.9-5.2
				C164.3,88.5,166.1,90.6,166.1,93.3z M161.6,97.5c1.6,0,2.4-1.6,2.4-3.8c0-2.5-1.2-4.2-3-4.2c-1.6,0-2.4,1.6-2.4,3.8
				C158.7,95.6,159.9,97.5,161.6,97.5z"/>
			<path class="st2" d="M170.1,97.3l1.1,0.2l-0.1,0.7l-1.9-0.1l-2.3,0.1l-0.1-0.7l1.4-0.2V85.3l-1.4,0l-0.1-0.7l2.4-0.6l1-0.1v6.5
				l2.9-1.9c2.6,0,3,1,3,3.5v5.3l1.5,0.2l-0.1,0.7l-2.3-0.1l-1.9,0.1l-0.1-0.7l1-0.2v-5.7c0-1-0.5-1.5-1.3-1.5
				c-0.6,0-1.4,0.4-2.1,0.9l-0.6,0.4V97.3z"/>
			<path class="st2" d="M180.7,98.2l-2.3,0.1l-0.1-0.7l1.4-0.2V90l-1.4,0.1l-0.1-0.7l2.4-0.6l0.9-0.1l0.1,1.7l3-1.9
				c2.6,0,3,0.9,3,3.3v5.6l1.5,0.2l-0.1,0.7l-2.3-0.1l-1.9,0.1l-0.1-0.7l1-0.2v-5.7c0-1-0.5-1.5-1.3-1.5c-0.7,0-1.4,0.4-2.1,0.9
				l-0.6,0.4v5.9l1.1,0.2l-0.1,0.7L180.7,98.2z"/>
			<path class="st2" d="M195.2,89.9c-0.2-0.1-0.8-0.4-1.5-0.4c-0.8,0-1.5,0.4-1.5,1.2c0,0.6,0.5,1,1.4,1.5l1.5,0.8
				c1.3,0.7,1.9,1.4,1.9,2.6c0,1.8-1.5,2.5-3.8,3c-1.2,0-2.5-0.6-3-0.9l-0.4-2.3h1.3l0.7,1.7c0.4,0.3,1,0.5,1.6,0.5
				c1.1,0,1.6-0.7,1.6-1.5c0-0.8-0.4-1.1-1.5-1.7l-1.6-0.8c-0.9-0.4-1.7-1.2-1.7-2.3c0-1.4,1.3-2.2,3.6-2.7c1.1,0,2.2,0.5,2.8,0.9v2
				h-1.1L195.2,89.9z"/>
			<path class="st2" d="M207.7,93.3c0,3-1.8,4.7-4.9,5.2c-2.7,0-4.5-2.1-4.5-4.8c0-3,1.8-4.7,4.9-5.2
				C205.9,88.5,207.7,90.6,207.7,93.3z M203.3,97.5c1.6,0,2.4-1.6,2.4-3.8c0-2.5-1.2-4.2-3-4.2c-1.6,0-2.4,1.6-2.4,3.8
				C200.3,95.6,201.5,97.5,203.3,97.5z"/>
			<path class="st2" d="M211.2,98.2l-2.3,0.1l-0.1-0.7l1.4-0.2V90l-1.4,0.1l-0.1-0.7l2.4-0.6l0.9-0.1l0.1,1.7l3-1.9
				c2.6,0,3,0.9,3,3.3v5.6l1.5,0.2l-0.1,0.7l-2.3-0.1l-1.9,0.1l-0.1-0.7l1-0.2v-5.7c0-1-0.5-1.5-1.3-1.5c-0.7,0-1.4,0.4-2.1,0.9
				l-0.6,0.4v5.9l1.1,0.2l-0.1,0.7L211.2,98.2z"/>
			<path class="st2" d="M227.6,96.2c0.6,0.7,1.7,1.3,2.8,1.3c1.7,0,2.7-1.1,2.7-2.5c0-1.4-0.9-2.1-2.1-2.7l-2.4-1.1
				c-1.4-0.6-2.6-1.5-2.6-3.3c0-2.2,2-3.5,4.8-4c1.3,0,2.7,0.4,3.7,1.2v2.7h-1l-0.6-1.8c-0.5-0.5-1.2-1-2.4-1
				c-1.6,0-2.5,0.9-2.5,2.2c0,1.1,0.8,1.8,1.9,2.3l2.3,1c1.6,0.7,3,1.7,2.9,3.7c0,1.9-1.3,3.7-5,4.5c-1.8,0-3.1-0.5-4.1-1.4
				l-0.4-2.7h1.4L227.6,96.2z"/>
			<path class="st2" d="M242.1,89.9c-0.3-0.2-0.6-0.3-1.2-0.3c-1.4,0-2.4,1.5-2.4,3.7c0,2.1,1.2,3.7,3.1,3.7c0.8,0,1.6-0.4,2.3-0.8
				l0.3,0.8c-0.9,0.7-1.9,1.2-3.3,1.6c-2.6,0-4.5-1.7-4.5-4.8c0-3.1,2.3-4.6,4.8-5.2c0.9,0,2.2,0.5,2.8,1v2h-1.5L242.1,89.9z"/>
			<path class="st2" d="M248.4,97.3l1.1,0.2l-0.1,0.7l-1.9-0.1l-2.3,0.1l-0.1-0.7l1.4-0.2V85.3l-1.4,0l-0.1-0.7l2.4-0.6l1-0.1v6.5
				l2.9-1.9c2.6,0,3,1,3,3.5v5.3l1.5,0.2l-0.1,0.7l-2.3-0.1l-1.9,0.1l-0.1-0.7l1-0.2v-5.7c0-1-0.5-1.5-1.3-1.5
				c-0.6,0-1.4,0.4-2.1,0.9l-0.6,0.4V97.3z"/>
			<path class="st2" d="M265.7,93.3c0,3-1.8,4.7-4.9,5.2c-2.7,0-4.5-2.1-4.5-4.8c0-3,1.8-4.7,4.9-5.2
				C263.9,88.5,265.7,90.6,265.7,93.3z M261.3,97.5c1.6,0,2.4-1.6,2.4-3.8c0-2.5-1.2-4.2-3-4.2c-1.6,0-2.4,1.6-2.4,3.8
				C258.4,95.6,259.5,97.5,261.3,97.5z"/>
			<path class="st2" d="M276.4,93.3c0,3-1.8,4.7-4.9,5.2c-2.7,0-4.5-2.1-4.5-4.8c0-3,1.8-4.7,4.9-5.2
				C274.6,88.5,276.4,90.6,276.4,93.3z M272,97.5c1.6,0,2.4-1.6,2.4-3.8c0-2.5-1.2-4.2-3-4.2c-1.6,0-2.4,1.6-2.4,3.8
				C269,95.6,270.2,97.5,272,97.5z"/>
			<path class="st2" d="M279.5,98.2l-2.3,0.1l-0.1-0.7l1.4-0.2v-12l-1.4,0l-0.1-0.7l2.4-0.6l1-0.1v13.4l1.5,0.2l-0.1,0.7L279.5,98.2
				z"/>
			<path class="st2" d="M297.5,93.4c0,3-1.8,4.7-4.9,5.2c-2.7,0-4.5-2.1-4.5-4.8c0-3,1.8-4.7,4.9-5.2
				C295.7,88.6,297.5,90.7,297.5,93.4z M293.1,97.6c1.6,0,2.4-1.6,2.4-3.8c0-2.5-1.2-4.2-3-4.2c-1.6,0-2.4,1.6-2.4,3.8
				C290.1,95.7,291.3,97.6,293.1,97.6z"/>
			<path class="st2" d="M302,89.1h2.5V90H302v7.4l2.3,0.1l-0.1,0.8l-3.1-0.1l-2.3,0.1l-0.1-0.7l1.4-0.2V90h-1.8v-0.3l0.6-0.7h1.2
				v-0.2c0-1.2,0.4-2,1.1-2.8l1.7-1.9h2.5v1.6h-2.6l-0.4,0.5c-0.3,0.4-0.4,1-0.4,2.3V89.1z"/>
			<path class="st2" d="M310.3,85l0.1-0.7l2.7,0.1l3.9-0.1c2.5,0,4.4,1.2,4.4,3.5c0,2.7-2.5,3.9-5,4.5h-2.2v5.1l2.4,0.3l-0.1,0.7
				l-3.3-0.1l-2.8,0.1l-0.1-0.7l1.8-0.3V85.2L310.3,85z M314.2,91.3h1.7c1.9,0,3.2-1.3,3.2-3.2c0-1.7-0.9-3-3-3l-1.9,0.1V91.3z"/>
			<path class="st2" d="M331.1,95.7c0,0.9,0.1,1.2,0.2,1.5h1l0.1,0.7l-2.6,0.5l-0.6-1.6l-2.9,1.8c-2.6,0-3.1-0.9-3.1-3.3v-5.2
				l-1.4,0.1l-0.1-0.8l2.4-0.5l1-0.1v6.7c0,1,0.4,1.5,1.4,1.5c0.6,0,1.4-0.5,2.2-1l0.4-0.3v-5.6l-1.2,0.1l-0.1-0.8l2.2-0.5l1-0.1
				V95.7z"/>
			<path class="st2" d="M337.3,98.6c-2,0-2.7-0.5-3.5-0.9V85.4l-1.4,0l-0.1-0.7l2.4-0.6l1-0.1v6.5l2.5-1.9c2.2,0,4.1,1.7,4.1,4.6
				C342.3,96.6,340.3,98.2,337.3,98.6z M338.2,90.2c-0.5,0-1.2,0.3-1.9,0.8l-0.6,0.5v5.3c0.4,0.5,1.1,0.8,2,0.8
				c1.6,0,2.6-1.5,2.6-3.8C340.3,91.6,339.4,90.2,338.2,90.2z"/>
			<path class="st2" d="M345.5,98.3l-2.3,0.1l-0.1-0.7l1.4-0.2v-12l-1.4,0l-0.1-0.7l2.4-0.6l1-0.1v13.4l1.5,0.2l-0.1,0.7L345.5,98.3
				z"/>
			<path class="st2" d="M351.3,98.3l-2.3,0.1l-0.1-0.7l1.4-0.2v-7.3l-1.4,0.1l-0.1-0.7l2.4-0.6l1-0.1v8.6l1.5,0.2l-0.1,0.7
				L351.3,98.3z M350.3,84.5l1.4-0.1l0.6,0.1l0.1,1.1l-0.2,1l-1.4,0.1l-0.5-0.1l-0.1-1.1L350.3,84.5z"/>
			<path class="st2" d="M360.2,90c-0.3-0.2-0.6-0.3-1.2-0.3c-1.4,0-2.4,1.5-2.4,3.7c0,2.1,1.2,3.7,3.1,3.7c0.8,0,1.6-0.4,2.3-0.8
				l0.3,0.8c-0.9,0.7-1.9,1.2-3.3,1.6c-2.6,0-4.5-1.7-4.5-4.8c0-3.1,2.3-4.6,4.8-5.2c0.9,0,2.2,0.5,2.8,1v2h-1.5L360.2,90z"/>
			<path class="st2" d="M372.1,93.6l-1.3,3.7l1.7,0.3l-0.1,0.7l-2.4-0.1l-2.1,0.1l-0.1-0.7l1.6-0.2l5-13l1.2-0.3l5.2,13.3l1.6,0.2
				l-0.1,0.7l-2.8-0.1l-2.6,0.1l-0.1-0.7l1.7-0.3l-1.4-3.7H372.1z M374.8,87.4l-0.1-1.1l-2.2,6.4h4.3L374.8,87.4z"/>
			<path class="st2" d="M386.3,86l-0.4,0.5c-0.3,0.4-0.4,0.9-0.4,2.1v0.5h4.2v-0.3c0-1.2,0.4-2,1.1-2.8l1.7-1.9h2.5v1.6h-2.6
				l-0.4,0.5c-0.3,0.4-0.4,0.9-0.4,2.2v0.7h2.5V90h-2.5v7.4l2.3,0.1l-0.1,0.7l-3.1-0.1l-1.9,0.1l-0.1-0.7l1-0.2V90h-4.2v7.4l1.7,0.1
				l-0.1,0.7l-2.5-0.1l-2.3,0.1l-0.1-0.7l1.4-0.2V90h-1.8v-0.3l0.6-0.7h1.2c0-1.3,0.6-2.1,1.3-2.9l1.5-1.7h3.6l-1.3,1.6H386.3z"/>
			<path class="st2" d="M399,88.6c2.5,0,3.2,0.6,3.2,3.2v3.9c0,0.9,0.1,1.2,0.3,1.5h1l0.1,0.7l-2.6,0.5l-0.6-1.5l-2.4,1.7
				c-1.7,0-2.9-1-2.9-2.6c0-0.7,0.3-1.2,0.7-1.8l4.5-1.5v-1c0-1.2-0.1-1.9-1.2-1.9c-0.5,0-1.2,0.2-1.6,0.4l-0.3,1.6h-1.7v-1.5
				L399,88.6z M400.3,93.5l-2.9,1.2c-0.3,0.3-0.4,0.7-0.4,1.1c0,1,0.6,1.4,1.2,1.4c0.6,0,1-0.3,1.3-0.5l0.8-0.6V93.5z"/>
			<path class="st2" d="M406.8,98.3l-2.3,0.1l-0.1-0.7l1.4-0.2v-7.3l-1.4,0.1l-0.1-0.7l2.4-0.6l1-0.1v8.6l1.5,0.2l-0.1,0.7
				L406.8,98.3z M405.8,84.5l1.4-0.1l0.6,0.1l0.1,1.1l-0.2,1l-1.4,0.1l-0.5-0.1l-0.1-1.1L405.8,84.5z"/>
			<path class="st2" d="M413.1,91.5l2.3-2.8h1.6v2h-1.5c-0.5,0.1-1.4,0.8-1.9,1.4l-0.4,0.5v4.8l2.1,0.2l-0.1,0.8l-2.9-0.1l-2.2,0.1
				l-0.1-0.7l1.4-0.2v-7.3l-1.4,0.1l-0.1-0.7l2.4-0.6l0.8-0.1L413.1,91.5z"/>
			<path class="st2" d="M423.2,90c-0.2-0.1-0.8-0.4-1.5-0.4c-0.8,0-1.5,0.4-1.5,1.2c0,0.6,0.5,1,1.4,1.5l1.5,0.8
				c1.3,0.7,1.9,1.4,1.9,2.6c0,1.8-1.5,2.5-3.8,3c-1.2,0-2.5-0.6-3-0.9l-0.4-2.3h1.3l0.7,1.7c0.4,0.3,1,0.5,1.6,0.5
				c1.1,0,1.6-0.7,1.6-1.5c0-0.8-0.4-1.1-1.5-1.7l-1.6-0.8c-0.9-0.4-1.7-1.2-1.7-2.3c0-1.4,1.3-2.2,3.6-2.7c1.1,0,2.2,0.5,2.8,0.9v2
				h-1.1L423.2,90z"/>
		</g>
		<g>
			<g>
				<polygon class="st1" points="20.9,18 21,18 21,18 20.9,18 20.9,18 				"/>
				<path class="st1" d="M26.4,13.5c-1.1-0.2-2.2-0.3-3.2-0.3c-0.5,0-1,0.1-1.4,0.1l-0.2-6.4V5.9c0.4-0.2,1-0.3,1.7-0.3
					c0.9,0,1.9,0.1,3,0.3c0.9,0.1,1.9,0.3,2.9,0.3l0.3,7.6C28.4,13.8,27.4,13.7,26.4,13.5L26.4,13.5z M15.5,13.5
					c-1,0.2-2,0.3-3.1,0.4l0.3-7.6c1-0.1,2-0.2,2.9-0.3c1.1-0.2,2.1-0.3,3-0.3c0.7,0,1.2,0.1,1.7,0.3v1.1l-0.2,6.4
					c-0.4-0.1-0.9-0.1-1.4-0.1C17.7,13.2,16.7,13.3,15.5,13.5L15.5,13.5z M31.7,9V7.6h-0.9V5.1h-0.6c-1.3,0-2.5-0.2-3.8-0.4
					c-1.1-0.2-2.2-0.3-3.2-0.3c-0.9,0-1.7,0.1-2.3,0.4c-0.6-0.3-1.4-0.4-2.3-0.4c-1,0-2,0.2-3.2,0.3c-1.2,0.2-2.5,0.4-3.8,0.4h-0.6
					v2.5h-0.9V9h0.9v2h-0.9v1.4h0.9v2.7h0.6c1.4,0,2.7-0.2,4-0.4c1.1-0.2,2.1-0.3,3-0.3c0.7,0,1.2,0.1,1.7,0.3v0h1.2v0
					c0.4-0.2,0.9-0.3,1.7-0.3c0.9,0,1.9,0.2,3,0.3c1.3,0.2,2.6,0.4,4,0.4h0.6v-2.7h0.9V11h-0.9V9H31.7L31.7,9z"/>
				<path class="st1" d="M15.7,7c-0.1,0-0.1,0-0.2,0c-0.6,0.1-1.1,0.2-1.7,0.2l0,1C14.4,8.2,15,8.1,15.6,8c0,0,0,0,0,0V7L15.7,7z"/>
				<path class="st1" d="M16.4,6.9v1c1-0.1,2-0.2,2.8-0.2l0-1C18.4,6.7,17.4,6.8,16.4,6.9L16.4,6.9z"/>
				<path class="st1" d="M15.7,11.4c-0.1,0-0.1,0-0.2,0c-0.6,0.1-1.2,0.2-1.9,0.3l0,1c0.7-0.1,1.4-0.2,2.1-0.3c0,0,0,0,0,0V11.4
					L15.7,11.4z"/>
				<path class="st1" d="M16.4,11.3v1c1-0.1,1.8-0.2,2.6-0.2l0-1C18.2,11.1,17.3,11.2,16.4,11.3L16.4,11.3z"/>
				<path class="st1" d="M15.5,9.2v1c0,0,0.1,0,0.1,0c1.3-0.2,2.5-0.4,3.5-0.3l0-1C18,8.9,16.8,9.1,15.5,9.2L15.5,9.2z"/>
				<path class="st1" d="M14.8,9.3c-0.4,0.1-0.7,0.1-1.1,0.1l0,1c0.4,0,0.8-0.1,1.1-0.1V9.3L14.8,9.3z"/>
				<path class="st1" d="M25,6.9c-0.8-0.1-1.6-0.2-2.4-0.1l0,1c0.7-0.1,1.5,0,2.3,0.1V6.9L25,6.9z"/>
				<path class="st1" d="M28.1,7.3C27.5,7.2,27,7.1,26.4,7C26.2,7,26,7,25.8,7v1c0.2,0,0.3,0,0.5,0.1c0.6,0.1,1.3,0.2,1.9,0.3
					L28.1,7.3L28.1,7.3z"/>
				<path class="st1" d="M24.8,9c-0.7-0.1-1.4-0.1-2.1-0.1l0,1c0.6,0,1.3,0,2.1,0.1V9L24.8,9z"/>
				<path class="st1" d="M28.2,9.5c-0.6-0.1-1.2-0.2-1.8-0.2c-0.3,0-0.5-0.1-0.8-0.1v1c0.2,0,0.4,0.1,0.7,0.1c0.6,0.1,1.3,0.2,2,0.3
					L28.2,9.5L28.2,9.5z"/>
				<path class="st1" d="M26.3,12.4c0.7,0.1,1.3,0.2,2,0.3l0-1c-0.6-0.1-1.3-0.2-1.9-0.3c0,0-0.1,0-0.1,0V12.4L26.3,12.4z"/>
				<path class="st1" d="M25.6,11.3c-1-0.1-1.9-0.2-2.7-0.2l0,1c0.8,0,1.7,0.1,2.7,0.2V11.3L25.6,11.3z"/>
				<path class="st1" d="M19.7,26.9l1.3-3.1l1.3,3.1l3.4,0.2L23,29.3l0.8,3.3l-2.9-1.8l-2.9,1.8l0.8-3.3l-2.6-2.2L19.7,26.9
					L19.7,26.9z M12.1,25.8L12.1,25.8l5.4,4l-2.1,6.5c0,0,0,0,0,0c0,0,0,0,0,0l5.5-4l5.5,4c0,0,0,0,0,0c0,0,0,0,0-0.1l-2.1-6.4
					l5.4-4l0,0c0,0,0,0,0-0.1c0,0,0,0-0.1,0v0h-6.7L21,19.3h0c0,0,0,0,0,0s0,0,0,0h0l-2.1,6.4L12.1,25.8L12.1,25.8
					C12.1,25.7,12,25.7,12.1,25.8C12,25.7,12,25.8,12.1,25.8L12.1,25.8z"/>
				<path class="st1" d="M34.5,33.9c-0.5,0.5-1.1,0.9-1.8,1.1c0.1-0.7,0.4-1.4,0.9-1.9c0.5-0.5,1.1-0.9,1.8-1.1
					C35.3,32.6,35,33.3,34.5,33.9L34.5,33.9z M31.8,29.6c-0.1-0.7,0-1.5,0.4-2.1c0.5,0.5,0.8,1.2,0.9,1.9c0.1,0.7,0,1.5-0.4,2.1
					C32.2,31,31.9,30.4,31.8,29.6L31.8,29.6z M33.3,24.1c-0.1-0.7-0.1-1.5,0.2-2.1c0.5,0.5,0.9,1.2,1,1.9c0.1,0.7,0.1,1.5-0.2,2.1
					C33.8,25.5,33.4,24.8,33.3,24.1L33.3,24.1z M36.8,25.7c0.1,0.7-0.1,1.4-0.5,2.1c-0.4,0.6-0.9,1.1-1.6,1.4
					c-0.1-0.7,0.1-1.4,0.5-2.1C35.6,26.5,36.1,26,36.8,25.7L36.8,25.7z M31.4,39.4c-0.6,0.4-1.3,0.7-2,0.7c0.2-0.7,0.7-1.3,1.3-1.7
					c0.6-0.4,1.3-0.7,2-0.7C32.5,38.4,32,39,31.4,39.4L31.4,39.4z M29.7,34.7c0.1-0.7,0.3-1.4,0.8-2c0.4,0.6,0.5,1.4,0.5,2.1
					c-0.1,0.7-0.3,1.4-0.8,2C29.8,36.2,29.7,35.5,29.7,34.7L29.7,34.7z M27.8,39.6c-0.2,0.7-0.6,1.3-1.2,1.8c-0.2-0.7-0.2-1.4,0-2.1
					c0.2-0.7,0.6-1.3,1.2-1.8C28,38.2,28,38.9,27.8,39.6L27.8,39.6z M28.9,42.8c-0.4,0.6-0.9,1.1-1.6,1.4c-0.5,0.2-1,0.3-1.5,0.3
					l0,0c-0.2,0-0.4,0-0.6-0.1c0.4-0.6,0.9-1.1,1.6-1.4C27.5,42.8,28.2,42.7,28.9,42.8L28.9,42.8z M22.6,43.1
					c0.4-0.6,0.9-1.2,1.5-1.5c0.1,0.7-0.1,1.4-0.4,2.1c-0.3,0.6-0.9,1.2-1.5,1.5C22.2,44.5,22.3,43.7,22.6,43.1L22.6,43.1z
					 M14.5,44.2c-0.7-0.3-1.2-0.8-1.6-1.4c0.7-0.1,1.4,0,2.1,0.3c0.7,0.3,1.2,0.8,1.6,1.4C15.9,44.6,15.2,44.5,14.5,44.2L14.5,44.2z
					 M14,39.6c-0.2-0.7-0.2-1.4,0-2.1c0.6,0.5,1,1.1,1.2,1.8c0.2,0.7,0.2,1.4,0,2.1C14.6,41,14.2,40.3,14,39.6L14,39.6z M17.7,41.6
					c0.6,0.3,1.2,0.9,1.5,1.5c0.3,0.6,0.5,1.4,0.4,2.1c-0.6-0.3-1.2-0.9-1.5-1.5C17.7,43,17.6,42.3,17.7,41.6L17.7,41.6z M10.4,39.4
					c-0.6-0.4-1-1-1.3-1.7c0.7,0,1.4,0.3,2,0.7c0.6,0.4,1,1,1.3,1.7C11.7,40.1,11,39.8,10.4,39.4L10.4,39.4z M11.3,32.7
					c0.5,0.6,0.7,1.3,0.8,2c0.1,0.7-0.1,1.5-0.5,2.1c-0.5-0.6-0.7-1.3-0.8-2C10.8,34.1,11,33.4,11.3,32.7L11.3,32.7z M7.4,33.9
					c-0.5-0.5-0.8-1.2-0.9-1.9c0.7,0.2,1.3,0.5,1.8,1.1c0.5,0.5,0.8,1.2,0.9,1.9C8.5,34.8,7.9,34.4,7.4,33.9L7.4,33.9z M7.1,29.2
					c-0.7-0.3-1.2-0.8-1.6-1.4c-0.4-0.6-0.5-1.4-0.5-2.1c0.7,0.3,1.2,0.8,1.6,1.4C7,27.8,7.2,28.5,7.1,29.2L7.1,29.2z M7.3,23.9
					c0.1-0.7,0.5-1.4,1-1.9c0.3,0.7,0.4,1.4,0.2,2.1c-0.1,0.7-0.5,1.4-1,1.9C7.2,25.3,7.2,24.6,7.3,23.9L7.3,23.9z M8.8,29.5
					c0.1-0.7,0.4-1.4,0.9-1.9c0.3,0.6,0.5,1.4,0.4,2.1c-0.1,0.7-0.4,1.4-0.9,1.9C8.8,30.9,8.7,30.2,8.8,29.5L8.8,29.5z M34.5,30.4
					c1.1-0.3,2.1-1.1,2.6-2.1c0.6-1,0.8-2.2,0.5-3.3l-0.1-0.5L37,24.6c-0.6,0.2-1.1,0.4-1.5,0.8c0.1-0.6,0.1-1.1,0-1.7
					c-0.2-1.1-0.9-2.2-1.8-2.8l-0.4-0.3L33,21c-0.6,1-0.8,2.2-0.6,3.3c0.2,1.1,0.9,2.1,1.8,2.8c-0.2,0.4-0.3,0.8-0.3,1.2
					c-0.3-0.8-0.8-1.4-1.4-2L32,26.1l-0.3,0.4c-0.7,0.9-1,2.1-0.8,3.3c0.2,1.2,0.7,2.2,1.6,3l0,0c-0.3,0.4-0.5,0.8-0.6,1.2
					c-0.1-0.8-0.4-1.6-1-2.2l-0.3-0.4l-0.4,0.4c-0.9,0.8-1.4,1.9-1.5,3c-0.1,1.2,0.3,2.3,1,3.2l0,0c-0.3,0.3-0.6,0.6-0.9,1
					c0.1-0.8-0.1-1.6-0.5-2.4l-0.2-0.5l-0.4,0.3c-1,0.6-1.7,1.5-2.1,2.7c-0.3,1.1-0.2,2.3,0.3,3.4l0,0c-0.4,0.2-0.7,0.5-1,0.8
					c0.2-0.8,0.2-1.6,0-2.4l-0.1-0.5l-0.5,0.2c-1.1,0.4-2,1.1-2.6,2.2c-0.5,1-0.7,2.1-0.4,3.2c-0.1,0.1-0.3,0.2-0.5,0.3
					c-0.2-0.1-0.3-0.2-0.5-0.3c0.3-1.1,0.1-2.2-0.4-3.2c-0.6-1-1.5-1.8-2.6-2.2L17,40.3l-0.1,0.5c-0.2,0.8-0.2,1.6,0,2.4
					c-0.3-0.3-0.7-0.6-1-0.8l0,0c0.5-1,0.6-2.2,0.3-3.4c-0.3-1.1-1.1-2.1-2.1-2.7l-0.4-0.3l-0.2,0.5c-0.4,0.7-0.5,1.6-0.5,2.4
					c-0.2-0.4-0.5-0.7-0.9-1l0,0c0.7-0.9,1.1-2.1,1-3.2c-0.1-1.2-0.6-2.2-1.5-3l-0.4-0.4l-0.3,0.4c-0.5,0.6-0.8,1.4-1,2.2
					c-0.2-0.4-0.4-0.8-0.6-1.2l0,0c0.9-0.7,1.5-1.8,1.6-3c0.1-1.2-0.1-2.3-0.8-3.3l-0.3-0.4l-0.4,0.3c-0.6,0.5-1.1,1.2-1.4,2
					c-0.1-0.4-0.2-0.8-0.3-1.2c0.9-0.7,1.6-1.7,1.8-2.8c0.2-1.2,0-2.3-0.6-3.3l-0.3-0.4l-0.4,0.3c-0.9,0.7-1.6,1.7-1.8,2.8
					c-0.1,0.6-0.1,1.1,0,1.7c-0.5-0.4-1-0.6-1.5-0.8l-0.5-0.1L4.2,25c-0.3,1.1-0.1,2.3,0.5,3.3c0.6,1,1.5,1.7,2.7,2.1l0.4,0.1
					c0,0.4,0.1,0.7,0.3,1.1c-0.6-0.4-1.3-0.6-2.1-0.7l-0.5,0l0,0.5c0,1.2,0.4,2.3,1.2,3.2c0.8,0.9,1.9,1.4,3,1.5l0.5,0
					c0.1,0.4,0.3,0.7,0.5,1c-0.5-0.2-1-0.3-1.6-0.3c-0.2,0-0.4,0-0.6,0l-0.5,0.1L8,37.3c0.2,1.2,0.9,2.2,1.8,2.8
					c0.8,0.6,1.7,0.9,2.7,0.9c0.2,0,0.4,0,0.6,0l0.5-0.1c0.2,0.3,0.4,0.6,0.7,0.9c-0.7-0.1-1.5,0-2.2,0.2l-0.5,0.2l0.2,0.5
					c0.5,1.1,1.3,1.9,2.4,2.4c0.6,0.3,1.2,0.4,1.9,0.4c0.5,0,1-0.1,1.5-0.3l0.4-0.1c0.6,0.5,1.3,1,2.2,1.7c-0.4,0.3-0.9,0.6-1.4,0.9
					l0.9,0.6c0.5-0.3,1-0.6,1.4-0.9c0.4,0.3,0.9,0.6,1.4,0.9l0.9-0.6c-0.5-0.3-1-0.6-1.4-0.9c0.9-0.6,1.6-1.1,2.2-1.7l0.4,0.1
					c0.5,0.2,1,0.3,1.5,0.3l0,0c0.6,0,1.3-0.1,1.9-0.4c1.1-0.5,1.9-1.3,2.4-2.4l0.2-0.5L29.8,42c-0.7-0.2-1.5-0.3-2.2-0.2
					c0.3-0.3,0.5-0.6,0.7-0.9l0.5,0.1c0.2,0,0.4,0,0.6,0h0c1,0,1.9-0.3,2.7-0.9c0.9-0.7,1.6-1.7,1.8-2.8l0.1-0.5l-0.5-0.1
					c-0.2,0-0.4,0-0.6,0c-0.6,0-1.1,0.1-1.6,0.3c0.2-0.3,0.4-0.6,0.5-1l0.5,0c1.2-0.1,2.2-0.6,3-1.5c0.8-0.9,1.2-2,1.2-3.2l0-0.5
					l-0.5,0c-0.7,0.1-1.5,0.3-2.1,0.7c0.1-0.3,0.2-0.7,0.3-1.1L34.5,30.4L34.5,30.4z"/>
				<path class="st1" d="M34.6,40.6c-1,1.4-2.1,2.8-3.5,4.1c-4.2,3.8-8.9,6-10.2,6.5c-1.3-0.6-6-2.7-10.2-6.5
					c-1.4-1.3-2.5-2.6-3.5-4.1c-4.7-6.9-5.4-15-5.4-21.3l0,0l19-1.1l19,1.1C40,25.6,39.3,33.6,34.6,40.6L34.6,40.6z M2.9,3.1
					c3.5-0.4,11.5-1.2,18-1.2c6.5,0,14.5,0.8,18,1.2l1,13.9h-19H2L2.9,3.1L2.9,3.1z M41.9,1.5L41,1.4C40.9,1.4,29.7,0,21,0
					c0,0,0,0,0,0c0,0,0,0,0,0C12.2,0,1,1.4,0.9,1.4L0,1.5v15.5h0v2.2c0,6.5,0.6,15,5.7,22.4c1,1.5,2.2,2.9,3.6,4.3l0,0c0,0,0,0,0,0
					c2.7,2.6,6.4,5.1,11.6,8v0c0,0,0,0,0,0c0,0,0,0,0,0v0c5.2-2.9,8.8-5.4,11.6-8c0,0,0,0,0,0v0c1.4-1.4,2.6-2.8,3.6-4.3
					c5.1-7.4,5.7-15.9,5.7-22.4v-0.3l0,0V1.5L41.9,1.5z"/>
			</g>
			<g>
				<polygon class="st1" points="53.3,3.2 53.3,14.2 55.7,14.2 58.5,6.3 67.8,6.2 67.8,43.8 60.4,44.6 60.7,46.7 71.1,46.5
					81.2,46.7 81.5,44.6 74.3,43.8 74.3,6.2 83.6,6.3 86.5,14.2 88.9,14.2 88.9,3.2 71.1,3.4 				"/>
				<polygon class="st1" points="121.5,43.6 104.4,43.8 104.4,25.2 113.1,25.5 115.6,32 117.7,32 117.1,23.6 117.7,15.9 115.6,15.9
					113.1,22.4 104.4,22.6 104.4,6.1 120.8,6.3 124.3,14.4 126.4,14.4 125.8,3.2 101.2,3.4 92.6,3.2 92.3,5.4 97.9,6.2 97.9,43.8
					92.3,44.6 92.6,46.7 101.2,46.5 125.8,46.7 128,35.3 125.6,35.3 				"/>
				<path class="st1" d="M193.4,2.7l-3.7,1.1l-15.4,40.2l-3,0.4l-3-0.5l-13.8-20.3l12.7-17.5l4.8-0.7l-0.3-2.2l-7.3,0.2l-7.3-0.2
					l-0.3,2.2l5.4,0.8l-9.8,14.5l-8.8-14.5l5.3-0.8l-0.3-2.2L140,3.4l-8.9-0.2l-0.3,2.2l4.8,0.7l12.8,19.4l-13.4,18.4l-4.8,0.7
					l0.3,2.2l6.9-0.2l7.3,0.2l0.3-2.2l-5.1-0.7l10.6-15.5l9.6,15.4l-5.3,0.8l0.3,2.2l8.9-0.2l7.2,0.2l5.1-0.2l7.4,0.2l0.3-2.2
					l-5.4-0.8l4-11.6h15.3l4.2,11.6l-5.3,0.8l0.3,2.2l8.2-0.2l8.6,0.2l0.3-2.2l-4.8-0.7L193.4,2.7z M183.8,29.3l6.4-18.6l6.8,18.6
					H183.8z"/>
				<path class="st1" d="M235.5,22.4l-7.1-3.1c-3.4-1.5-5.8-3.6-5.8-7c0-4.2,2.9-6.8,7.8-6.8c3.7,0,5.7,1.4,7.3,3l1.8,5.6h3.1V5.8
					c-3.1-2.3-7.4-3.6-11.3-3.6c-8.6,1.8-14.8,5.8-14.8,12.5c0,5.5,3.7,8.4,8.1,10.3l7.5,3.3c3.7,1.6,6.4,4,6.4,8.2
					c0,4.5-3.1,7.9-8.4,7.9c-3.5,0-6.9-1.6-8.7-3.9l-2.2-5.3h-4.3l1.4,8.4c3.3,2.6,7.1,4.2,12.8,4.2c11.7-2.4,15.6-8.1,15.6-13.9
					C244.7,27.6,240.4,24.5,235.5,22.4z"/>
			</g>
		</g>
	</g>
	<g>
		<path class="st2" d="M262.6,46.6l-8.6,0.2l-0.3-2.2l5.6-0.8V6.3l-5.6-0.8l0.3-2.2l8.6,0.2l8.5-0.2l0.3,2.2l-5.6,0.8v37.6l15.5-0.2
			l4.2-8.4h2.4l-2.2,11.5L262.6,46.6z"/>
		<path class="st2" d="M299.8,46.6l-8.6,0.2l-0.3-2.2l5.6-0.8V6.3l-5.6-0.8l0.3-2.2l8.6,0.2L312,3.3c8.1-0.1,12,4.6,12,9.4
			c0,4.9-4.1,9.2-9.8,10.7c8.1,0.4,12.4,5.1,12.4,10.7c0,8.4-6.9,11.3-16.7,12.8L299.8,46.6z M303,6.3v16.3h5.1
			c5.5,0,9.1-4.2,9.1-9.3c0-4.3-2.7-7.2-7.8-7.3L303,6.3z M308.6,44.2c8.5,0,11.2-5.4,11.2-9.9c0-5.1-3.6-8.9-9.8-8.9H303v18.5
			L308.6,44.2z"/>
		<path class="st2" d="M341.1,40.6c0,5.3-0.6,7.7-2.8,10.2l-6.2,6.8h-5.6V52h6.5l0.6-1.3c0.9-2.2,1-4.2,1-9.9V6.3l-6.8-0.8l0.3-2.2
			l9.8,0.2l8.2-0.2l0.3,2.2l-5.3,0.8V40.6z"/>
		<path class="st2" d="M364.4,40.6c1.9,2.3,5.3,3.9,8.7,3.9c5.3,0,8.4-3.3,8.4-7.9c0-4.2-2.7-6.6-6.4-8.2l-7.5-3.3
			c-4.5-1.9-8.1-4.8-8.1-10.3c0-6.8,6.2-10.7,14.8-12.5c3.9,0,8.2,1.3,11.3,3.6v8.4h-3.1l-1.8-5.6c-1.6-1.7-3.6-3-7.3-3
			c-4.9,0-7.8,2.7-7.8,6.8c0,3.4,2.4,5.5,5.8,7l7.1,3.1c4.9,2.1,9.2,5.2,9.1,11.5c0,5.8-4,11.5-15.6,13.9c-5.7,0-9.5-1.6-12.8-4.2
			l-1.4-8.4h4.3L364.4,40.6z"/>
		<path class="st2" d="M409.1,21c-1-0.7-1.9-1-3.6-1c-4.2,0-7.4,4.7-7.4,11.5c0,6.6,3.6,11.6,9.7,11.6c2.4,0,4.8-1.2,7-2.6l1,2.4
			c-2.9,2-6,3.6-10.1,4.9c-7.9,0-13.8-5.2-13.8-14.8c0-9.7,7.1-14.4,14.8-16.2c2.9,0,6.7,1.4,8.6,3.1V26h-4.6L409.1,21z"/>
		<path class="st2" d="M428.7,44l3.4,0.6l-0.3,2.2l-5.9-0.2l-7.1,0.2l-0.3-2.2l4.3-0.6V6.6l-4.3,0.1l-0.3-2.1l7.4-1.9l3.1-0.2v20.1
			l9.1-5.9c7.9,0,9.2,3,9.2,10.8V44l4.7,0.6l-0.3,2.2l-7.1-0.2l-5.8,0.2l-0.3-2.2l3-0.6V26.3c0-3.2-1.5-4.6-4-4.6
			c-1.9,0-4.3,1.4-6.6,2.8l-1.9,1.2V44z"/>
		<path class="st2" d="M482.4,31.6c0,9.2-5.6,14.6-15.3,16.1c-8.2,0-13.8-6.4-13.8-14.8c0-9.3,5.6-14.6,15.2-16.2
			C476.8,16.7,482.4,23.1,482.4,31.6z M468.7,44.6c5,0,7.5-5.1,7.5-11.8c0-7.9-3.8-13.1-9.2-13.1c-5,0-7.5,5.1-7.5,11.8
			C459.5,38.6,463.2,44.6,468.7,44.6z"/>
		<path class="st2" d="M515.5,31.6c0,9.2-5.6,14.6-15.3,16.1c-8.2,0-13.8-6.4-13.8-14.8c0-9.3,5.6-14.6,15.2-16.2
			C509.9,16.7,515.5,23.1,515.5,31.6z M501.8,44.6c5,0,7.5-5.1,7.5-11.8c0-7.9-3.8-13.1-9.2-13.1c-5,0-7.5,5.1-7.5,11.8
			C492.6,38.6,496.3,44.6,501.8,44.6z"/>
		<path class="st2" d="M525.1,46.6l-7.1,0.2l-0.3-2.2L522,44V6.7l-4.3,0.1l-0.3-2.2l7.4-1.9l3.1-0.2V44l4.7,0.6l-0.3,2.2L525.1,46.6
			z"/>
	</g>
</g>
</svg>
